<svg width="25" height="25" viewBox="0 0 25 25" fill="none" xmlns="http://www.w3.org/2000/svg">
<path d="M14.0932 8.69977C13.4969 9.12487 12.7672 9.37492 11.9791 9.37492C9.96561 9.37492 8.33331 7.74262 8.33331 5.72909C8.33331 3.71555 9.96561 2.08325 11.9791 2.08325C13.2843 2.08325 14.4293 2.7691 15.0734 3.80007M6.24998 20.924H8.96903C9.32355 20.924 9.6759 20.9662 10.0196 21.0506L12.8926 21.7488C13.516 21.9006 14.1654 21.9154 14.7953 21.793L17.9718 21.175C18.811 21.0116 19.5829 20.6098 20.1878 20.0213L22.4353 17.835C23.0771 17.2118 23.0771 16.2004 22.4353 15.576C21.8574 15.0139 20.9424 14.9506 20.2887 15.4273L17.6694 17.3383C17.2942 17.6125 16.8378 17.7602 16.3684 17.7602H13.839L15.449 17.7601C16.3564 17.7601 17.0915 17.0451 17.0915 16.1623V15.8428C17.0915 15.1098 16.5787 14.4707 15.848 14.2935L13.3631 13.6892C12.9587 13.5912 12.5446 13.5416 12.1283 13.5416C11.1232 13.5416 9.30404 14.3737 9.30404 14.3737L6.24998 15.6508M20.8333 6.77075C20.8333 8.78429 19.201 10.4166 17.1875 10.4166C15.1739 10.4166 13.5416 8.78429 13.5416 6.77075C13.5416 4.75721 15.1739 3.12492 17.1875 3.12492C19.201 3.12492 20.8333 4.75721 20.8333 6.77075ZM2.08331 15.2083L2.08331 21.2499C2.08331 21.8333 2.08331 22.125 2.19685 22.3478C2.29672 22.5438 2.45607 22.7032 2.65207 22.803C2.8749 22.9166 3.16659 22.9166 3.74998 22.9166H4.58331C5.1667 22.9166 5.45839 22.9166 5.68122 22.8031C5.87722 22.7032 6.03658 22.5438 6.13645 22.3478C6.24998 22.125 6.24998 21.8333 6.24998 21.2499V15.2083C6.24998 14.6249 6.24998 14.3332 6.13645 14.1103C6.03658 13.9143 5.87722 13.755 5.68122 13.6551C5.4584 13.5416 5.1667 13.5416 4.58331 13.5416L3.74998 13.5416C3.16659 13.5416 2.8749 13.5416 2.65207 13.6551C2.45607 13.755 2.29672 13.9143 2.19685 14.1103C2.08331 14.3332 2.08331 14.6249 2.08331 15.2083Z" stroke="url(#paint0_linear_2536_12279)" stroke-width="2" stroke-linecap="round" stroke-linejoin="round"/>
<defs>
<linearGradient id="paint0_linear_2536_12279" x1="12.5" y1="2.08325" x2="12.5" y2="22.9166" gradientUnits="userSpaceOnUse">
<stop stop-color="#FFFDDE"/>
<stop offset="0.5" stop-color="#F8E85C"/>
<stop offset="1" stop-color="#F4B516"/>
</linearGradient>
</defs>
</svg>
