<svg width="20" height="20" viewBox="0 0 20 20" fill="none" xmlns="http://www.w3.org/2000/svg">
<path d="M1.66666 5.8335L8.47076 10.5964C9.02173 10.982 9.29722 11.1749 9.59688 11.2496C9.86157 11.3156 10.1384 11.3156 10.4031 11.2496C10.7028 11.1749 10.9782 10.982 11.5292 10.5964L18.3333 5.8335M5.66666 16.6668H14.3333C15.7335 16.6668 16.4335 16.6668 16.9683 16.3943C17.4387 16.1547 17.8212 15.7722 18.0608 15.3018C18.3333 14.767 18.3333 14.067 18.3333 12.6668V7.3335C18.3333 5.93336 18.3333 5.2333 18.0608 4.69852C17.8212 4.22811 17.4387 3.84566 16.9683 3.60598C16.4335 3.3335 15.7335 3.3335 14.3333 3.3335H5.66666C4.26653 3.3335 3.56646 3.3335 3.03168 3.60598C2.56128 3.84566 2.17882 4.22811 1.93914 4.69852C1.66666 5.2333 1.66666 5.93336 1.66666 7.3335V12.6668C1.66666 14.067 1.66666 14.767 1.93914 15.3018C2.17882 15.7722 2.56128 16.1547 3.03168 16.3943C3.56646 16.6668 4.26653 16.6668 5.66666 16.6668Z" stroke="white" stroke-width="2" stroke-linecap="round" stroke-linejoin="round"/>
</svg>
