<svg width="20" height="20" viewBox="0 0 20 20" fill="none" xmlns="http://www.w3.org/2000/svg">
<path d="M17 11.3676C17 10.9537 16.8353 10.5578 16.5425 10.2879C16.7438 10.018 16.8719 9.69409 16.8719 9.35218C16.8719 8.9563 16.7072 8.57841 16.4144 8.29049C16.1033 7.98458 15.7007 7.82262 15.2614 7.82262H11.9307L12.1503 6.45501C12.1686 6.27506 12.1869 6.11311 12.1869 5.93316C12.1869 4.58355 11.2536 3 10.0641 3C10.0275 3 9.99085 3 9.95425 3C9.38693 3.10797 9.02091 3.66581 9.05752 4.24165L9.16732 5.68123C9.16732 5.77121 9.16732 5.87918 9.14902 5.96915C9.13072 6.05913 9.09412 6.1491 9.03921 6.23907L7.20915 9.58612L7.15425 9.6401H6.64183C6.36732 9.6401 6.14771 9.85604 6.14771 10.126V16.0823C6.14771 16.3522 6.36732 16.5681 6.64183 16.5681H14.0353C14.6392 16.5681 15.1882 16.1902 15.3895 15.6504C15.5176 15.3265 15.5359 15.0026 15.4627 14.6967C16.0301 14.4627 16.3961 13.9229 16.3961 13.2931C16.3961 13.0951 16.3595 12.8792 16.268 12.6992C16.7255 12.4293 17 11.9434 17 11.4036V11.3676Z" fill="#F4B516"/>
<path d="M5.41569 9.69409C5.37908 9.38818 5.10457 9.15424 4.77516 9.15424H3.64052C3.29281 9.15424 3 9.44216 3 9.78406V16.3702C3 16.7121 3.29281 17 3.64052 17H4.77516C5.12288 17 5.41569 16.7121 5.41569 16.3702V9.67609V9.69409Z" fill="#F4B516"/>
</svg>
