<svg width="20" height="20" viewBox="0 0 20 20" fill="none" xmlns="http://www.w3.org/2000/svg">
<path d="M12.3625 12.3641L16.7625 8.31486C16.9208 8.16915 17 7.99659 17 7.7972C17 7.59781 16.9208 7.42525 16.7625 7.27954L12.3625 3.23031C12.1125 2.99257 11.825 2.93889 11.5 3.06926C11.1667 3.19963 11 3.42587 11 3.74797V5.58853C10.0083 5.58853 9.10833 5.6633 8.3 5.81285C7.49167 5.96239 6.81458 6.15795 6.26875 6.39952C5.72292 6.6411 5.24792 6.94402 4.84375 7.3083C4.43958 7.67258 4.12083 8.03877 3.8875 8.40688C3.65417 8.775 3.46875 9.19296 3.33125 9.66077C3.19375 10.1286 3.10417 10.5561 3.0625 10.9434C3.02083 11.3307 3 11.7544 3 12.2145C3 13.6026 3.69583 15.1518 5.0875 16.862C5.17917 16.954 5.28333 17 5.4 17C5.45833 17 5.5125 16.9885 5.5625 16.9655C5.74583 16.8965 5.825 16.7699 5.8 16.5859C5.43333 13.871 5.69167 12.0573 6.575 11.1447C6.95833 10.7459 7.5 10.4564 8.2 10.2762C8.9 10.096 9.83333 10.0059 11 10.0059V11.8464C11 12.1685 11.1667 12.3948 11.5 12.5251C11.6 12.5635 11.7 12.5827 11.8 12.5827C12.0167 12.5827 12.2042 12.5098 12.3625 12.3641Z" fill="#F4B516"/>
</svg>
