<svg width="20" height="20" viewBox="0 0 20 20" fill="none" xmlns="http://www.w3.org/2000/svg">
<path d="M18 10C18 10 15 5 10 5C5 5 2 10 2 10C2 10 5 15 10 15C15 15 18 10 18 10ZM3.173 10C3.65651 9.33193 4.21264 8.70971 4.833 8.14273C6.12 6.97091 7.88 5.90909 10 5.90909C12.12 5.90909 13.879 6.97091 15.168 8.14273C15.7884 8.70971 16.3445 9.33193 16.828 10C16.77 10.0791 16.706 10.1664 16.633 10.2618C16.298 10.6982 15.803 11.28 15.168 11.8573C13.879 13.0291 12.119 14.0909 10 14.0909C7.88 14.0909 6.121 13.0291 4.832 11.8573C4.21165 11.2903 3.65652 10.6681 3.173 10Z" fill="#F4B516"/>
<path d="M6.5 10C6.5 9.15613 6.86875 8.34682 7.52513 7.75012C8.1815 7.15341 9.07174 6.81818 10 6.81818C10.9283 6.81818 11.8185 7.15341 12.4749 7.75012C13.1313 8.34682 13.5 9.15613 13.5 10C13.5 10.8439 13.1313 11.6532 12.4749 12.2499C11.8185 12.8466 10.9283 13.1818 10 13.1818C9.07174 13.1818 8.1815 12.8466 7.52513 12.2499C6.86875 11.6532 6.5 10.8439 6.5 10Z" fill="#F4B516"/>
</svg>
