<svg width="15" height="15" viewBox="0 0 15 15" fill="none" xmlns="http://www.w3.org/2000/svg">
<path d="M7.05166 2.15835C7.19571 1.86652 7.26774 1.7206 7.36552 1.67398C7.45059 1.63341 7.54943 1.63341 7.6345 1.67398C7.73228 1.7206 7.80431 1.86652 7.94836 2.15835L9.31504 4.92708C9.35757 5.01324 9.37883 5.05632 9.4099 5.08977C9.43742 5.11938 9.47042 5.14337 9.50707 5.16042C9.54847 5.17967 9.59601 5.18662 9.69108 5.20051L12.7481 5.64735C13.07 5.6944 13.231 5.71793 13.3055 5.79655C13.3703 5.86496 13.4008 5.95897 13.3884 6.05239C13.3743 6.15977 13.2577 6.27327 13.0247 6.50027L10.8134 8.65404C10.7445 8.72118 10.71 8.75475 10.6878 8.79469C10.6681 8.83006 10.6554 8.86891 10.6506 8.9091C10.6451 8.95448 10.6532 9.0019 10.6695 9.09674L11.1912 12.1389C11.2463 12.4597 11.2738 12.6201 11.2221 12.7153C11.1771 12.7982 11.0971 12.8563 11.0044 12.8735C10.8979 12.8932 10.7538 12.8174 10.4657 12.6659L7.73274 11.2287C7.64758 11.1839 7.60501 11.1615 7.56015 11.1527C7.52044 11.1449 7.47959 11.1449 7.43987 11.1527C7.39501 11.1615 7.35244 11.1839 7.26728 11.2287L4.53433 12.6659C4.2462 12.8174 4.10213 12.8932 3.99561 12.8735C3.90293 12.8563 3.82295 12.7982 3.77796 12.7153C3.72625 12.6201 3.75377 12.4597 3.8088 12.1389L4.33055 9.09674C4.34682 9.0019 4.35495 8.95448 4.34945 8.9091C4.34458 8.86891 4.33194 8.83006 4.31225 8.79469C4.29001 8.75475 4.25555 8.72118 4.18662 8.65404L1.97535 6.50027C1.74229 6.27327 1.62576 6.15977 1.61158 6.05239C1.59924 5.95897 1.62972 5.86496 1.69453 5.79655C1.76902 5.71793 1.92998 5.6944 2.2519 5.64735L5.30894 5.20051C5.40402 5.18662 5.45155 5.17967 5.49295 5.16042C5.5296 5.14337 5.5626 5.11938 5.59012 5.08977C5.62119 5.05632 5.64246 5.01324 5.68498 4.92708L7.05166 2.15835Z" fill="url(#paint0_linear_2536_12337)" stroke="url(#paint1_linear_2536_12337)" stroke-width="2" stroke-linecap="round" stroke-linejoin="round"/>
<defs>
<linearGradient id="paint0_linear_2536_12337" x1="7.50001" y1="1.64355" x2="7.50001" y2="12.8765" gradientUnits="userSpaceOnUse">
<stop stop-color="#FFFDDE"/>
<stop offset="0.5" stop-color="#F8E85C"/>
<stop offset="1" stop-color="#F4B516"/>
</linearGradient>
<linearGradient id="paint1_linear_2536_12337" x1="7.50001" y1="1.64355" x2="7.50001" y2="12.8765" gradientUnits="userSpaceOnUse">
<stop stop-color="#FFFDDE"/>
<stop offset="0.5" stop-color="#F8E85C"/>
<stop offset="1" stop-color="#F4B516"/>
</linearGradient>
</defs>
</svg>
