<svg width="30" height="30" viewBox="0 0 30 30" fill="none" xmlns="http://www.w3.org/2000/svg">
<path fill-rule="evenodd" clip-rule="evenodd" d="M23.3753 24.1004C23.0608 24.4665 22.5509 24.4665 22.2365 24.1004L14.4199 15L22.2365 5.89959C22.5509 5.53347 23.0608 5.53347 23.3753 5.89959C23.6897 6.26571 23.6897 6.8593 23.3753 7.22542L16.6975 15L23.3753 22.7746C23.6897 23.1407 23.6897 23.7343 23.3753 24.1004Z" fill="white"/>
<path fill-rule="evenodd" clip-rule="evenodd" d="M18.1904 27.1339C17.7711 27.622 17.0913 27.622 16.6721 27.1339L6.25 15L16.6721 2.86612C17.0913 2.37796 17.7711 2.37796 18.1904 2.86612C18.6097 3.35427 18.6097 4.14573 18.1904 4.63389L9.28675 15L18.1904 25.3661C18.6097 25.8543 18.6097 26.6457 18.1904 27.1339Z" fill="white"/>
</svg>
