<svg width="1em" height="1em" viewBox="0 0 25 25" fill="none" xmlns="http://www.w3.org/2000/svg">
<path d="M16.1458 11.9792H15.1042L13.5417 15.1042L11.4583 8.85417L9.89584 11.9792H8.85418M12.4929 5.34981C10.4102 2.915 6.93725 2.26004 4.32782 4.4896C1.71839 6.71915 1.35102 10.4469 3.40022 13.0838C4.94802 15.0755 9.34511 19.0739 11.4042 20.9113C11.7827 21.2491 11.972 21.418 12.1936 21.4845C12.386 21.5422 12.5998 21.5422 12.7922 21.4845C13.0138 21.418 13.203 21.2491 13.5816 20.9113C15.6406 19.0739 20.0377 15.0755 21.5855 13.0838C23.6347 10.4469 23.3122 6.6957 20.6579 4.4896C18.0037 2.2835 14.5755 2.915 12.4929 5.34981Z" stroke="url(#paint0_linear_2536_10854)" stroke-width="2" stroke-linecap="round" stroke-linejoin="round"/>
<defs>
<linearGradient id="paint0_linear_2536_10854" x1="12.5" y1="3.125" x2="12.5" y2="21.5278" gradientUnits="userSpaceOnUse">
<stop stop-color="#FFFDDE"/>
<stop offset="0.5" stop-color="#F8E85C"/>
<stop offset="1" stop-color="#F4B516"/>
</linearGradient>
</defs>
</svg>
