<svg width="1em" height="1em" viewBox="0 0 25 25" fill="none" xmlns="http://www.w3.org/2000/svg">
<path d="M13.5417 7.29167L12.3797 4.96762C12.0452 4.29875 11.878 3.9643 11.6285 3.71996C11.4079 3.50389 11.142 3.33956 10.8501 3.23886C10.52 3.125 10.1461 3.125 9.39823 3.125H5.41668C4.2499 3.125 3.66651 3.125 3.22086 3.35207C2.82886 3.55181 2.51015 3.87052 2.31041 4.26252C2.08334 4.70817 2.08334 5.29156 2.08334 6.45833V7.29167M2.08334 7.29167H17.9167C19.6668 7.29167 20.5419 7.29167 21.2104 7.63227C21.7984 7.93188 22.2765 8.40994 22.5761 8.99795C22.9167 9.66642 22.9167 10.5415 22.9167 12.2917V16.875C22.9167 18.6252 22.9167 19.5002 22.5761 20.1687C22.2765 20.7567 21.7984 21.2348 21.2104 21.5344C20.5419 21.875 19.6668 21.875 17.9167 21.875H7.08334C5.33318 21.875 4.4581 21.875 3.78962 21.5344C3.20162 21.2348 2.72355 20.7567 2.42395 20.1687C2.08334 19.5002 2.08334 18.6252 2.08334 16.875V7.29167ZM12.5 18.2292C12.5 18.2292 15.625 16.7397 15.625 14.5054V11.8988L13.3463 11.0846C12.7988 10.8885 12.2 10.8885 11.6525 11.0846L9.37501 11.8988V14.5054C9.37501 16.7397 12.5 18.2292 12.5 18.2292Z" stroke="url(#paint0_linear_2536_10905)" stroke-width="2" stroke-linecap="round" stroke-linejoin="round"/>
<defs>
<linearGradient id="paint0_linear_2536_10905" x1="12.5" y1="3.125" x2="12.5" y2="21.875" gradientUnits="userSpaceOnUse">
<stop stop-color="#FFFDDE"/>
<stop offset="0.5" stop-color="#F8E85C"/>
<stop offset="1" stop-color="#F4B516"/>
</linearGradient>
</defs>
</svg>
