<svg width="25" height="25" viewBox="0 0 25 25" fill="none" xmlns="http://www.w3.org/2000/svg">
<path d="M16.875 21.875C18.6252 21.875 19.5002 21.875 20.1687 21.5344C20.7567 21.2348 21.2348 20.7567 21.5344 20.1687C21.875 19.5002 21.875 18.6252 21.875 16.875V8.125C21.875 6.37484 21.875 5.49976 21.5344 4.83128C21.2348 4.24327 20.7567 3.76521 20.1687 3.46561C19.5002 3.125 18.6252 3.125 16.875 3.125L8.125 3.125C6.37484 3.125 5.49975 3.125 4.83128 3.4656C4.24327 3.76521 3.76521 4.24327 3.4656 4.83128C3.125 5.49975 3.125 6.37484 3.125 8.125L3.125 16.875C3.125 18.6252 3.125 19.5002 3.4656 20.1687C3.76521 20.7567 4.24327 21.2348 4.83128 21.5344C5.49975 21.875 6.37484 21.875 8.125 21.875H16.875Z" stroke="url(#paint0_linear_2536_10830)" stroke-width="2" stroke-linecap="round" stroke-linejoin="round"/>
<path d="M14.3037 13.7445C14.2302 13.524 14.1935 13.4138 14.1954 13.3236C14.1974 13.2288 14.2101 13.1791 14.2538 13.0949C14.2953 13.0148 14.4063 12.9115 14.6283 12.7049C15.2415 12.1343 15.625 11.3203 15.625 10.4167C15.625 8.69078 14.2259 7.29167 12.5 7.29167C10.7741 7.29167 9.375 8.69078 9.375 10.4167C9.375 11.3203 9.75853 12.1343 10.3717 12.7049C10.5937 12.9115 10.7047 13.0148 10.7462 13.0949C10.7899 13.1791 10.8026 13.2288 10.8046 13.3236C10.8065 13.4138 10.7698 13.524 10.6963 13.7445L9.74062 16.6115C9.61718 16.9818 9.55546 17.167 9.59247 17.3143C9.62486 17.4434 9.70539 17.5551 9.81754 17.6266C9.94566 17.7083 10.1408 17.7083 10.5312 17.7083H14.4688C14.8592 17.7083 15.0543 17.7083 15.1825 17.6266C15.2946 17.5551 15.3751 17.4434 15.4075 17.3143C15.4445 17.167 15.3828 16.9818 15.2594 16.6115L14.3037 13.7445Z" stroke="url(#paint1_linear_2536_10830)" stroke-width="2" stroke-linecap="round" stroke-linejoin="round"/>
<defs>
<linearGradient id="paint0_linear_2536_10830" x1="12.5" y1="3.125" x2="12.5" y2="21.875" gradientUnits="userSpaceOnUse">
<stop stop-color="#FFFDDE"/>
<stop offset="0.5" stop-color="#F8E85C"/>
<stop offset="1" stop-color="#F4B516"/>
</linearGradient>
<linearGradient id="paint1_linear_2536_10830" x1="12.5" y1="3.125" x2="12.5" y2="21.875" gradientUnits="userSpaceOnUse">
<stop stop-color="#FFFDDE"/>
<stop offset="0.5" stop-color="#F8E85C"/>
<stop offset="1" stop-color="#F4B516"/>
</linearGradient>
</defs>
</svg>
